<svg xmlns="http://www.w3.org/2000/svg" xmlns:xlink="http://www.w3.org/1999/xlink" width="291" height="60" viewBox="0 0 291 60">
    <defs>
        <path id="a" d="M.025.034H3.77v11.197H.025z"/>
        <path id="c" d="M0 59.997h290.938V0H0z"/>
    </defs>
    <g fill="none" fill-rule="evenodd">
        <path fill="#2B2B2B" d="M212.308 13.667l.636-.042c.452-.028.621-.127.621-.605V4.496c0-.478-.169-.577-.621-.605l-.636-.042v-.422h4.365v.422l-.635.042c-.466.028-.636.127-.636.605v8.524c0 .478.17.577.636.605l.635.042v.422h-4.365v-.422zM217.775 13.71l.438-.029c.48-.028.551-.07.551-.52V8.7l-1.06-.787V7.83l2.755-1.098v1.871c.297-1.167 1.102-1.814 2.246-1.814 1.272 0 2.105.69 2.105 2.715v3.657c0 .45.071.492.551.52l.438.028v.38h-3.602v-.38l.381-.028c.48-.042.537-.07.537-.52V9.827c0-1.59-.466-2.025-1.257-2.025-.749 0-1.399.478-1.399 2.04v3.319c0 .45.043.478.537.52l.367.028v.38h-3.588v-.38zM230.08 13.442c.508 0 .847-.112 1.172-.31l.184.338c-.58.436-1.54.732-2.331.732-1.215 0-1.78-.352-1.78-1.562V7.928h-1.484v-.084l3.08-2.35h.1v1.534h2.895l-.565.9h-2.33v4.304c0 .915.423 1.21 1.059 1.21M233.668 9.082h3.207c-.043-1.182-.509-1.9-1.455-1.9-.89 0-1.568.662-1.752 1.9m-1.808 1.477c0-2.28 1.765-3.77 3.616-3.77 1.554 0 2.939.844 3.362 2.785h-5.213v.211c0 1.955 1.046 3.362 2.642 3.362.904 0 2.02-.422 2.444-1.829h.368c-.368 1.984-1.682 2.94-3.476 2.94-2.288 0-3.743-1.491-3.743-3.7M239.643 13.71l.438-.029c.48-.028.551-.07.551-.52V4.693l-1.06-.732v-.084l2.756-.985v10.269c0 .45.07.492.55.52l.439.028v.38h-3.674v-.38zM244.164 13.71l.438-.029c.48-.028.55-.07.55-.52V4.693l-1.059-.732v-.084l2.755-.985v10.269c0 .45.07.492.551.52l.438.028v.38h-3.673v-.38zM250.309 9.082h3.207c-.043-1.182-.509-1.9-1.455-1.9-.89 0-1.568.662-1.752 1.9m-1.808 1.477c0-2.28 1.766-3.77 3.616-3.77 1.554 0 2.939.844 3.362 2.785h-5.212v.211c0 1.955 1.045 3.362 2.641 3.362.904 0 2.02-.422 2.444-1.829h.368c-.368 1.984-1.681 2.94-3.476 2.94-2.288 0-3.743-1.491-3.743-3.7M256.68 10.587c0-2.28 1.794-3.798 3.87-3.798 1.357 0 2.685.59 2.685 1.617 0 .535-.424.887-1.13.887-.156 0-.31-.014-.48-.043 0-1.448-.594-2.04-1.441-2.04-.89 0-1.738.76-1.752 2.533-.028 1.842.932 3.404 2.585 3.404.89 0 1.936-.436 2.303-1.829h.367c-.353 1.998-1.624 2.94-3.404 2.94-2.162 0-3.603-1.533-3.603-3.671M268.335 13.442c.508 0 .847-.112 1.172-.31l.184.338c-.58.436-1.54.732-2.331.732-1.215 0-1.78-.352-1.78-1.562V7.928h-1.483v-.084l3.08-2.35h.098v1.534h2.896l-.565.9h-2.33v4.304c0 .915.423 1.21 1.059 1.21M271.655 11.543v-3.84l-.961-.295v-.38h2.656v4.192c0 1.59.452 2.04 1.243 2.04.749 0 1.413-.493 1.413-2.054V7.703l-.961-.295v-.38h2.656v6.288h1.06v.38l-2.755.534v-1.787c-.311 1.168-1.116 1.815-2.26 1.815-1.258 0-2.091-.675-2.091-2.715M283.818 11.754l.028-2.025c-.31.253-.537.38-.975.633-.847.492-1.356.97-1.356 1.8 0 .69.382 1.393 1.102 1.393.565 0 1.187-.493 1.2-1.8m-4.195.604c0-1.294 1.498-1.716 2.6-2.096 1.553-.548 1.68-1.055 1.68-1.73 0-.717-.494-1.28-1.327-1.28-1.032 0-1.597.802-1.272 2.096a3.64 3.64 0 0 1-.72.07c-.735 0-1.046-.337-1.046-.717 0-.436.664-.915 1.526-1.308.706-.324 1.526-.605 2.416-.605 1.229 0 2.048.464 2.02 1.983l-.07 4.614 1.016-.042v.38l-2.472.492-.113-1.42c-.367 1.096-1.102 1.462-1.978 1.462-1.328 0-2.26-.858-2.26-1.899"/>
        <g transform="translate(287.169 2.858)">
            <mask id="b" fill="#fff">
                <use xlink:href="#a"/>
            </mask>
            <path fill="#2B2B2B" d="M.096 10.851l.438-.028c.48-.028.55-.07.55-.52V1.835L.026 1.103V1.02L2.78.034v10.269c0 .45.07.492.55.52l.439.028v.38H.096v-.38z" mask="url(#b)"/>
        </g>
        <path fill="#2B2B2B" d="M212.308 34.52l.636-.042c.452-.028.621-.126.621-.605V25.35c0-.478-.169-.577-.621-.605l-.636-.042v-.422h4.55c2.584 0 4.633.563 4.633 2.842 0 2.278-2.049 2.968-4.634 2.968h-1.102v-.535h.99c1.807 0 2.712-.675 2.712-2.363s-.905-2.391-2.713-2.391h-1.342v9.072c0 .479.17.563.636.577l1.172.042v.45h-4.902v-.422zM222.296 34.563l.438-.029c.48-.028.55-.07.55-.52v-4.459l-1.059-.788v-.084l2.755-1.097v2.32c.367-1.575 1.356-2.166 2.529-2.166h.127v1.702l-.636-.084c-1.568-.21-2.02.422-2.02 1.238v3.418c0 .45.113.464.593.492l.749.043v.393h-4.026v-.38zM234.078 31.37c0-2.406-.89-3.264-1.908-3.264-1.045 0-1.935.858-1.935 3.264 0 2.39.89 3.263 1.935 3.263 1.018 0 1.908-.872 1.908-3.263m-5.764.056c0-2.265 1.808-3.784 3.87-3.784 2.19 0 3.83 1.604 3.83 3.685 0 2.265-1.795 3.784-3.872 3.784-2.175 0-3.828-1.59-3.828-3.685M239.333 28.894v5.092c.325.351.763.464 1.144.464 1.2 0 2.048-1.181 2.048-3.052 0-1.73-.833-2.954-2.02-2.954-.41 0-.847.112-1.172.45zm-2.685 9.157l.438-.028c.48-.028.551-.07.551-.52v-7.92l-1.045-.703v-.085l2.74-1.21v1.013a2.632 2.632 0 0 1 2.035-.956c1.681 0 3.066 1.379 3.066 3.756 0 2.194-1.456 3.713-3.306 3.713-.735 0-1.385-.31-1.794-.787v3.178c0 .45.113.465.607.493l.777.042v.394h-4.069v-.38zM247.314 29.935h3.207c-.042-1.182-.508-1.9-1.455-1.9-.89 0-1.568.662-1.752 1.9m-1.808 1.477c0-2.279 1.766-3.77 3.617-3.77 1.554 0 2.938.844 3.362 2.785h-5.213v.211c0 1.955 1.045 3.362 2.642 3.362.904 0 2.02-.422 2.444-1.829h.367c-.367 1.984-1.681 2.94-3.475 2.94-2.289 0-3.744-1.49-3.744-3.7M253.375 34.563l.438-.029c.48-.028.55-.07.55-.52v-4.459l-1.059-.788v-.084l2.755-1.097v2.32c.367-1.575 1.356-2.166 2.529-2.166h.127v1.702l-.636-.084c-1.568-.21-2.02.422-2.02 1.238v3.418c0 .45.113.464.593.492l.749.043v.393h-4.026v-.38zM263.588 34.295c.51 0 .848-.112 1.173-.31l.184.338c-.58.437-1.54.732-2.331.732-1.215 0-1.78-.352-1.78-1.561V28.78h-1.484v-.084l3.08-2.35h.099v1.534h2.896l-.565.9h-2.331v4.305c0 .914.424 1.21 1.06 1.21M266.838 37.742c0-.62.536-1.126 1.95-1.35l.649-1.422-2.571-6.02c-.198-.45-.297-.619-.763-.66l-.31-.03v-.379h3.715v.38l-.382.028c-.466.028-.607.211-.452.59l1.695 4.052 1.696-3.742c.282-.633.07-.872-.396-.9l-.466-.028v-.38h2.74v.38l-.367.028c-.466.042-.636.211-.862.703l-3.7 8.117c-.439.97-.778 1.406-1.371 1.406-.495 0-.805-.351-.805-.773"/>
        <mask id="d" fill="#fff">
            <use xlink:href="#c"/>
        </mask>
        <g fill="#FF7E70" mask="url(#d)">
            <path d="M165.966 56.548h17.294V2.828h-17.294zM194.868 19.425c4.78 0 8.656-3.865 8.656-8.623 0-4.759-3.875-8.623-8.656-8.623-4.78 0-8.657 3.864-8.657 8.623 0 4.758 3.876 8.623 8.657 8.623"/>
        </g>
        <path fill="#2B2B2B" d="M34.266 15.896c-.605-2.185-2.307-2.976-4.01-2.976-2.156 0-3.593 1.055-4.123 2.976h8.133zm-3.48 6.855c1.551 0 2.875-.603 3.632-1.431l4.54 2.599c-1.854 2.561-4.654 3.88-8.248 3.88-6.469 0-10.479-4.332-10.479-9.945 0-5.612 4.086-9.944 10.063-9.944 5.523 0 9.609 4.257 9.609 9.944 0 .791-.076 1.545-.227 2.26h-13.43c.72 1.96 2.46 2.637 4.54 2.637zM43.118 27.271h5.674V8.438h-5.674V27.27zm-.568-23.88C42.55 1.543 44.101 0 45.955 0c1.854 0 3.405 1.544 3.405 3.39s-1.551 3.39-3.405 3.39c-1.854 0-3.405-1.544-3.405-3.39zM71.111 15.707v11.564h-5.674V16.536c0-2.335-1.475-3.428-3.291-3.428-2.08 0-3.518 1.206-3.518 3.88v10.283h-5.675V8.437h5.675v1.77c1.02-1.393 2.912-2.297 5.41-2.297 3.82 0 7.073 2.712 7.073 7.797M93.165 15.707v11.564h-5.674V16.536c0-2.335-1.475-3.428-3.291-3.428-2.08 0-3.518 1.206-3.518 3.88v10.283h-5.675v-24.4h5.675v7.337c1.021-1.394 2.913-2.298 5.41-2.298 3.82 0 7.073 2.712 7.073 7.797M110.491 17.854c0-2.674-1.891-4.444-4.35-4.444-2.46 0-4.351 1.77-4.351 4.444 0 2.675 1.892 4.445 4.35 4.445 2.46 0 4.351-1.77 4.351-4.445m-14.375 0c0-5.612 4.463-9.944 10.024-9.944 5.562 0 10.026 4.332 10.026 9.944 0 5.613-4.464 9.944-10.026 9.944-5.56 0-10.024-4.331-10.024-9.944M119.38 27.271h5.675v-24.4h-5.675zM142.948 17.854c0-2.825-1.891-4.595-4.502-4.595-2.61 0-4.501 1.77-4.501 4.595 0 2.825 1.891 4.596 4.501 4.596 2.61 0 4.502-1.77 4.502-4.596zm5.675-14.982v24.4h-5.675V25.5c-1.248 1.431-3.102 2.297-5.637 2.297-4.955 0-9.04-4.331-9.04-9.944 0-5.612 4.085-9.944 9.04-9.944 2.535 0 4.389.867 5.637 2.298V2.872h5.675zM100.11 47.088c0-2.674-1.891-4.445-4.35-4.445-2.46 0-4.35 1.77-4.35 4.445 0 2.674 1.89 4.445 4.35 4.445 2.459 0 4.35-1.77 4.35-4.445m-14.375 0c0-5.612 4.464-9.944 10.025-9.944 5.56 0 10.025 4.332 10.025 9.944 0 5.612-4.464 9.944-10.025 9.944S85.735 52.7 85.735 47.088M148.648 44.941v11.564h-5.675V45.77c0-2.336-1.475-3.428-3.291-3.428-2.08 0-3.518 1.205-3.518 3.88v10.283h-5.675V37.67h5.675v1.77c1.021-1.393 2.913-2.297 5.41-2.297 3.82 0 7.074 2.712 7.074 7.797M126.594 44.941v11.564h-5.675V45.77c0-2.336-1.475-3.428-3.291-3.428-2.08 0-3.518 1.205-3.518 3.88v10.283h-5.675v-24.4h5.675v7.337c1.021-1.394 2.913-2.298 5.41-2.298 3.82 0 7.074 2.712 7.074 7.797M5.7 7.75h3.995c2.345 0 3.607 1.186 3.607 3.09 0 1.796-1.262 3.09-3.607 3.09H5.7V7.75zm0 19.521v-8.456h2.908l4.21 8.456h6.256s-4.89-9.34-4.812-9.37l.117-.047c2.928-1.18 4.696-3.733 4.696-7.05 0-4.527-3.247-7.975-8.298-7.975H0V27.27h5.7zM79.278 48.323c-.96 1.721-2.915 2.749-5.227 2.749-4.016 0-6.611-2.637-6.611-6.717s2.595-6.717 6.61-6.717c2.281 0 4.236 1.029 5.23 2.752l5.152-2.981a11.628 11.628 0 0 0-4.34-4.075c-1.817-.989-3.906-1.511-6.041-1.511-3.507 0-6.713 1.281-9.027 3.608-2.296 2.308-3.56 5.477-3.56 8.924 0 3.447 1.264 6.616 3.56 8.923 2.314 2.327 5.52 3.609 9.027 3.609 2.151 0 4.25-.523 6.067-1.511a11.432 11.432 0 0 0 4.315-4.077l-5.155-2.976zM212.033 51.167c0-3.363 2.59-5.536 6.207-5.536 1.168 0 2.477.197 3.322.561l.62 3.35h-.296l-1.717-2.621c-.254-.393-.45-.519-.732-.603-.324-.098-.76-.14-1.281-.14-2.013 0-4.082 1.233-4.082 4.625 0 2.971 1.435 5.326 4.25 5.326.62 0 1.45-.084 2.056-.336v-3.056c0-.462-.183-.574-.62-.588l-1.421-.056v-.505h5.137v.56l-1.266.015v2.789l.056.98c-1.042.393-2.745.758-4.11.758-3.618 0-6.123-2.159-6.123-5.523M224.321 56.143l.436-.028c.479-.028.55-.07.55-.519v-4.442l-1.056-.785v-.084l2.744-1.094v2.313c.366-1.57 1.352-2.158 2.52-2.158h.127v1.695l-.634-.084c-1.562-.21-2.013.42-2.013 1.234v3.405c0 .449.113.463.592.491l.746.042v.393h-4.012v-.379zM236.102 52.961c0-2.396-.886-3.251-1.9-3.251-1.041 0-1.928.855-1.928 3.251 0 2.383.887 3.252 1.928 3.252 1.014 0 1.9-.869 1.9-3.252m-5.742.057c0-2.257 1.801-3.77 3.856-3.77 2.182 0 3.815 1.597 3.815 3.672 0 2.256-1.788 3.77-3.857 3.77-2.168 0-3.814-1.584-3.814-3.672M239.847 53.985v-3.827l-.958-.294v-.378h2.647v4.176c0 1.584.45 2.033 1.238 2.033.746 0 1.408-.491 1.408-2.047v-3.49l-.957-.294v-.378h2.646v6.265h1.056v.378l-2.745.533v-1.78c-.31 1.163-1.112 1.808-2.252 1.808-1.253 0-2.083-.673-2.083-2.705M250.235 50.495v5.073c.324.35.76.463 1.14.463 1.196 0 2.04-1.177 2.04-3.041 0-1.724-.83-2.944-2.012-2.944-.408 0-.844.112-1.168.449zm-2.675 9.124l.437-.028c.478-.028.549-.07.549-.519v-7.89l-1.042-.701v-.084l2.73-1.206v1.01a2.622 2.622 0 0 1 2.028-.953c1.675 0 3.054 1.373 3.054 3.742 0 2.186-1.45 3.7-3.294 3.7-.732 0-1.379-.309-1.787-.785v3.167c0 .449.112.463.605.49l.774.043v.392h-4.054v-.378z" mask="url(#d)"/>
    </g>
</svg>
